<svg width="1536" height="512" viewBox="0 0 1536 512" fill="none" xmlns="http://www.w3.org/2000/svg">
<path d="M1408 128.001L1408 256.001L1280 256.001L1280 128.001L1408 128.001Z" fill="#918B82"/>
<path d="M6.10352e-05 12C6.10352e-05 5.37258 5.37264 0 12.0001 0H116C122.627 0 128 5.37258 128 12V128H6.10352e-05V12Z" fill="#4A4A4A"/>
<path d="M12.0001 19C12.0001 15.134 15.1341 12 19.0001 12H109C112.866 12 116 15.134 116 19V128H12.0001V19Z" fill="#C2BFBF"/>
<path d="M48.0001 53C48.0001 50.2386 50.2386 48 53.0001 48H75.0001C77.7615 48 80.0001 50.2386 80.0001 53V128H48.0001V53Z" fill="#A29D96"/>
<path d="M0 128.001H128V256.001H0V128.001Z" fill="#4A4A4A"/>
<path d="M12 128.001H116V256.001H12V128.001Z" fill="#C2BFBF"/>
<path d="M48 128.001H80V256.001H48V128.001Z" fill="#A29D96"/>
<path d="M128 372.001C128 378.628 122.627 384.001 116 384.001L12 384.001C5.37258 384.001 4.69686e-07 378.628 1.04907e-06 372.001L1.11901e-05 256.001L128 256.001L128 372.001Z" fill="#4A4A4A"/>
<path d="M116 365.001C116 368.867 112.866 372.001 109 372.001L19 372.001C15.134 372.001 12 368.867 12 365.001L12 256.001L116 256.001L116 365.001Z" fill="#C2BFBF"/>
<path d="M80 331.001C80 333.762 77.7614 336.001 75 336.001L53 336.001C50.2386 336.001 48 333.762 48 331.001L48 256.001L80 256.001L80 331.001Z" fill="#A29D96"/>
<path d="M372 384.001C378.627 384.001 384 389.374 384 396.001L384 500.001C384 506.628 378.627 512.001 372 512.001L256 512.001L256 384.001L372 384.001Z" fill="#4A4A4A"/>
<path d="M365 396.001C368.866 396.001 372 399.135 372 403.001L372 493.001C372 496.867 368.866 500.001 365 500.001L256 500.001L256 396.001L365 396.001Z" fill="#C2BFBF"/>
<path d="M331 432.001C333.761 432.001 336 434.24 336 437.001L336 459.001C336 461.762 333.761 464.001 331 464.001L256 464.001L256 432.001L331 432.001Z" fill="#A29D96"/>
<path d="M256 384.001L256 512.001L128 512.001L128 384.001L256 384.001Z" fill="#4A4A4A"/>
<path d="M256 396.001L256 500.001L128 500.001L128 396.001L256 396.001Z" fill="#C2BFBF"/>
<path d="M256 432.001L256 464.001L128 464.001L128 432.001L256 432.001Z" fill="#A29D96"/>
<path d="M12 512.001C5.37258 512.001 7.04529e-07 506.628 1.57361e-06 500.001L1.52116e-05 396.001C1.60806e-05 389.374 5.3726 384.001 12 384.001L128 384.001L128 512.001L12 512.001Z" fill="#4A4A4A"/>
<path d="M19 500.001C15.134 500.001 12 496.867 12 493.001L12 403.001C12 399.135 15.134 396.001 19 396.001L128 396.001L128 500.001L19 500.001Z" fill="#C2BFBF"/>
<path d="M53 464.001C50.2386 464.001 48 461.762 48 459.001L48 437.001C48 434.24 50.2386 432.001 53 432.001L128 432.001L128 464.001L53 464.001Z" fill="#A29D96"/>
<path d="M128 128.001L128 12.001C128 5.37356 133.373 0.000977267 140 0.000978136L256 0.000993348L256 128.001L128 128.001Z" fill="#4A4A4A"/>
<path d="M140 128.001L140 19.001C140 15.135 143.134 12.001 147 12.001L256 12.001L256 128.001L140 128.001Z" fill="#C2BFBF"/>
<path d="M176 128.001L176 53.001C176 50.2395 178.239 48.001 181 48.001L256 48.001L256 128.001L176 128.001Z" fill="#A29D96"/>
<path d="M208 128.001L208 85.001C208 82.2395 210.239 80.001 213 80.001L256 80.001L256 128.001L208 128.001Z" fill="#C2BFBF"/>
<path d="M244 128.001L244 119.001C244 117.344 245.343 116.001 247 116.001L256 116.001L256 128.001L244 128.001Z" fill="#4A4A4A"/>
<path d="M908 512.001C901.373 512.001 896 506.628 896 500.001L896 396.001C896 389.374 901.373 384.001 908 384.001L1012 384.001C1018.63 384.001 1024 389.374 1024 396.001L1024 500.001C1024 506.628 1018.63 512.001 1012 512.001L908 512.001Z" fill="#4A4A4A"/>
<path d="M915 500.001C911.134 500.001 908 496.867 908 493.001L908 403.001C908 399.135 911.134 396.001 915 396.001L1005 396.001C1008.87 396.001 1012 399.135 1012 403.001L1012 493.001C1012 496.867 1008.87 500.001 1005 500.001L915 500.001Z" fill="#C2BFBF"/>
<path d="M949 464.001C946.239 464.001 944 461.762 944 459.001L944 437.001C944 434.24 946.239 432.001 949 432.001L971 432.001C973.761 432.001 976 434.24 976 437.001L976 459.001C976 461.762 973.761 464.001 971 464.001L949 464.001Z" fill="#A29D96"/>
<path d="M1152 128.001L1152 12.001C1152 5.37356 1157.37 0.000977267 1164 0.000978136L1280 0.000993348L1280 128.001L1152 128.001Z" fill="#4A4A4A"/>
<path d="M1164 128.001L1164 19.001C1164 15.135 1167.13 12.001 1171 12.001L1280 12.001L1280 128.001L1164 128.001Z" fill="#C2BFBF"/>
<path d="M1200 128.001L1200 53.001C1200 50.2395 1202.24 48.001 1205 48.001L1280 48.001L1280 128.001L1200 128.001Z" fill="#A29D96"/>
<path d="M1232 128.001L1232 85.001C1232 82.2395 1234.24 80.001 1237 80.001L1280 80.001L1280 128.001L1232 128.001Z" fill="#918B82"/>
<path d="M1152 256.001L1152 128.001L1280 128.001L1280 256.001L1152 256.001Z" fill="#4A4A4A"/>
<path d="M1164 256.001L1164 128.001L1280 128.001L1280 256.001L1164 256.001Z" fill="#C2BFBF"/>
<path d="M1200 256.001L1200 128.001L1280 128.001L1280 256.001L1200 256.001Z" fill="#A29D96"/>
<path d="M1232 256.001L1232 128.001L1280 128.001L1280 256.001L1232 256.001Z" fill="#918B82"/>
<path d="M1280 0L1408 0V128L1280 128V0Z" fill="#4A4A4A"/>
<path d="M1280 12L1408 12V128L1280 128V12Z" fill="#C2BFBF"/>
<path d="M1280 48L1408 48V128L1280 128V48Z" fill="#A29D96"/>
<path d="M1280 80L1408 80V128H1280V80Z" fill="#918B82"/>
<path d="M1536 128.001L1536 256.001L1408 256.001L1408 128.001L1536 128.001Z" fill="#4A4A4A"/>
<path d="M1524 128.001L1524 256.001L1408 256.001L1408 128.001L1524 128.001Z" fill="#C2BFBF"/>
<path d="M1488 128.001L1488 256.001L1408 256.001L1408 128.001L1488 128.001Z" fill="#A29D96"/>
<path d="M1456 128.001L1456 256.001L1408 256.001L1408 128.001L1456 128.001Z" fill="#918B82"/>
<path d="M1408 384.001L1280 384.001L1280 256.001L1408 256.001L1408 384.001Z" fill="#4A4A4A"/>
<path d="M1408 372.001L1280 372.001L1280 256.001L1408 256.001L1408 372.001Z" fill="#C2BFBF"/>
<path d="M1408 336.001L1280 336.001L1280 256.001L1408 256.001L1408 336.001Z" fill="#A29D96"/>
<path d="M1408 304.001L1280 304.001L1280 256.001L1408 256.001L1408 304.001Z" fill="#918B82"/>
<path d="M1408 0L1524 0C1530.63 0 1536 5.37258 1536 12V128L1408 128V0Z" fill="#4A4A4A"/>
<path d="M1408 12L1517 12C1520.87 12 1524 15.134 1524 19V128H1408V12Z" fill="#C2BFBF"/>
<path d="M1408 48L1483 48C1485.76 48 1488 50.2386 1488 53V128H1408V48Z" fill="#A29D96"/>
<path d="M1408 80H1451C1453.76 80 1456 82.2386 1456 85V128H1408V80Z" fill="#918B82"/>
<path d="M1536 256.001L1536 372.001C1536 378.628 1530.63 384.001 1524 384.001L1408 384.001L1408 256.001L1536 256.001Z" fill="#4A4A4A"/>
<path d="M1524 256.001L1524 365.001C1524 368.867 1520.87 372.001 1517 372.001L1408 372.001L1408 256.001L1524 256.001Z" fill="#C2BFBF"/>
<path d="M1488 256.001L1488 331.001C1488 333.762 1485.76 336.001 1483 336.001L1408 336.001L1408 256.001L1488 256.001Z" fill="#A29D96"/>
<path d="M1456 256.001L1456 299.001C1456 301.762 1453.76 304.001 1451 304.001L1408 304.001L1408 256.001L1456 256.001Z" fill="#918B82"/>
<path d="M1280 384.001L1164 384.001C1157.37 384.001 1152 378.628 1152 372.001L1152 256.001L1280 256.001L1280 384.001Z" fill="#4A4A4A"/>
<path d="M1280 372.001L1171 372.001C1167.13 372.001 1164 368.867 1164 365.001L1164 256.001L1280 256.001L1280 372.001Z" fill="#C2BFBF"/>
<path d="M1280 336.001L1205 336.001C1202.24 336.001 1200 333.762 1200 331.001L1200 256.001L1280 256.001L1280 336.001Z" fill="#A29D96"/>
<path d="M1280 304.001L1237 304.001C1234.24 304.001 1232 301.762 1232 299.001L1232 256.001L1280 256.001L1280 304.001Z" fill="#918B82"/>
<path d="M256 0L372 0C378.627 0 384 5.37258 384 12V128L256 128V0Z" fill="#4A4A4A"/>
<path d="M256 12L365 12C368.866 12 372 15.134 372 19V128H256V12Z" fill="#C2BFBF"/>
<path d="M256 48L331 48C333.761 48 336 50.2386 336 53V128H256V48Z" fill="#A29D96"/>
<path d="M256 80H299C301.761 80 304 82.2386 304 85V128H256V80Z" fill="#C2BFBF"/>
<path d="M256 116H265C266.657 116 268 117.343 268 119V128H256V116Z" fill="#4A4A4A"/>
<path d="M1408 384.001H1536V512.001H1408V384.001Z" fill="#918B82"/>
<path d="M1408 432.001H1483C1485.76 432.001 1488 434.24 1488 437.001V512.001H1408V432.001Z" fill="#A29D96"/>
<path d="M1408 464.001H1451C1453.76 464.001 1456 466.24 1456 469.001V512.001H1408V464.001Z" fill="#C2BFBF"/>
<path d="M1408 500.001H1417C1418.66 500.001 1420 501.344 1420 503.001V512.001H1408V500.001Z" fill="#4A4A4A"/>
<path d="M1280 512.001L1280 384.001L1408 384.001L1408 512.001L1280 512.001Z" fill="#918B82"/>
<path d="M1328 512.001L1328 437.001C1328 434.24 1330.24 432.001 1333 432.001L1408 432.001L1408 512.001L1328 512.001Z" fill="#A29D96"/>
<path d="M1360 512.001L1360 469.001C1360 466.24 1362.24 464.001 1365 464.001L1408 464.001L1408 512.001L1360 512.001Z" fill="#C2BFBF"/>
<path d="M1396 512.001L1396 503.001C1396 501.344 1397.34 500.001 1399 500.001L1408 500.001L1408 512.001L1396 512.001Z" fill="#4A4A4A"/>
<path d="M1280 384.001L1280 512.001L1152 512.001L1152 384.001L1280 384.001Z" fill="#918B82"/>
<path d="M1232 384.001L1232 459.001C1232 461.762 1229.76 464.001 1227 464.001L1152 464.001L1152 384.001L1232 384.001Z" fill="#A29D96"/>
<path d="M1200 384.001L1200 427.001C1200 429.762 1197.76 432.001 1195 432.001L1152 432.001L1152 384.001L1200 384.001Z" fill="#C2BFBF"/>
<path d="M1164 384.001L1164 393.001C1164 394.658 1162.66 396.001 1161 396.001L1152 396.001L1152 384.001L1164 384.001Z" fill="#4A4A4A"/>
<path d="M1152 512.001L1024 512.001L1024 384.001L1152 384.001L1152 512.001Z" fill="#918B82"/>
<path d="M1152 464.001L1077 464.001C1074.24 464.001 1072 461.762 1072 459.001L1072 384.001L1152 384.001L1152 464.001Z" fill="#A29D96"/>
<path d="M1152 432.001L1109 432.001C1106.24 432.001 1104 429.762 1104 427.001L1104 384.001L1152 384.001L1152 432.001Z" fill="#C2BFBF"/>
<path d="M1152 396.001L1143 396.001C1141.34 396.001 1140 394.658 1140 393.001L1140 384.001L1152 384.001L1152 396.001Z" fill="#4A4A4A"/>
<path d="M1152 384.001L1024 384.001L1024 256.001L1152 256.001L1152 384.001Z" fill="#918B82"/>
<path d="M1152 384.001L1072 384.001L1072 256.001L1152 256.001L1152 384.001Z" fill="#A29D96"/>
<path d="M1104 384.001L1104 341.001C1104 338.24 1106.24 336.001 1109 336.001L1152 336.001L1152 384.001L1104 384.001Z" fill="#C2BFBF"/>
<path d="M1140 384.001L1140 375.001C1140 373.344 1141.34 372.001 1143 372.001L1152 372.001L1152 384.001L1140 384.001Z" fill="#4A4A4A"/>
<path d="M1152 304.001L1109 304.001C1106.24 304.001 1104 301.762 1104 299.001L1104 256.001L1152 256.001L1152 304.001Z" fill="#C2BFBF"/>
<path d="M1152 268.001L1143 268.001C1141.34 268.001 1140 266.658 1140 265.001L1140 256.001L1152 256.001L1152 268.001Z" fill="#4A4A4A"/>
<path d="M896 256.001H1024V384.001H896V256.001Z" fill="#918B82"/>
<path d="M896 256.001H1024V384.001H896V256.001Z" fill="#918B82"/>
<path d="M896 256.001H976V384.001H896V256.001Z" fill="#A29D96"/>
<path d="M944 256.001L944 299.001C944 301.762 941.761 304.001 939 304.001L896 304.001L896 256.001L944 256.001Z" fill="#C2BFBF"/>
<path d="M908 256.001L908 265.001C908 266.658 906.657 268.001 905 268.001L896 268.001L896 256.001L908 256.001Z" fill="#4A4A4A"/>
<path d="M896 336.001H939C941.761 336.001 944 338.24 944 341.001V384.001H896V336.001Z" fill="#C2BFBF"/>
<path d="M896 372.001H905C906.657 372.001 908 373.344 908 375.001V384.001H896V372.001Z" fill="#4A4A4A"/>
<path d="M1024 128.001L1152 128.001V256.001H1024V128.001Z" fill="#A29D96"/>
<path d="M1104 128.001H1152V176.001H1109C1106.24 176.001 1104 173.762 1104 171.001V128.001Z" fill="#918B82"/>
<path d="M1072 128.001L1072 171.001C1072 173.762 1069.76 176.001 1067 176.001L1024 176.001L1024 128.001L1072 128.001Z" fill="#C2BFBF"/>
<path d="M1036 128.001L1036 137.001C1036 138.658 1034.66 140.001 1033 140.001L1024 140.001L1024 128.001L1036 128.001Z" fill="#4A4A4A"/>
<path d="M1104 128.001H1152V176.001H1109C1106.24 176.001 1104 173.762 1104 171.001V128.001Z" fill="#918B82"/>
<path d="M1072 128.001L1072 171.001C1072 173.762 1069.76 176.001 1067 176.001L1024 176.001L1024 128.001L1072 128.001Z" fill="#C2BFBF"/>
<path d="M1036 128.001L1036 137.001C1036 138.658 1034.66 140.001 1033 140.001L1024 140.001L1024 128.001L1036 128.001Z" fill="#4A4A4A"/>
<path d="M1072 256.001L1024 256.001L1024 208.001L1067 208.001C1069.76 208.001 1072 210.24 1072 213.001L1072 256.001Z" fill="#918B82"/>
<path d="M1104 256.001L1104 213.001C1104 210.24 1106.24 208.001 1109 208.001L1152 208.001L1152 256.001L1104 256.001Z" fill="#C2BFBF"/>
<path d="M1140 256.001L1140 247.001C1140 245.344 1141.34 244.001 1143 244.001L1152 244.001L1152 256.001L1140 256.001Z" fill="#4A4A4A"/>
<path d="M1024 128.001L1152 128.001V0.000976563L1024 0.000976562V128.001Z" fill="#A29D96"/>
<path d="M1104 128.001H1152V80.001H1109C1106.24 80.001 1104 82.2396 1104 85.001V128.001Z" fill="#918B82"/>
<path d="M1072 128.001L1072 85.001C1072 82.2395 1069.76 80.001 1067 80.001L1024 80.001L1024 128.001L1072 128.001Z" fill="#C2BFBF"/>
<path d="M1036 128.001L1036 119.001C1036 117.344 1034.66 116.001 1033 116.001L1024 116.001L1024 128.001L1036 128.001Z" fill="#4A4A4A"/>
<path d="M1104 128.001H1152V80.001H1109C1106.24 80.001 1104 82.2396 1104 85.001V128.001Z" fill="#918B82"/>
<path d="M1072 128.001L1072 85.001C1072 82.2395 1069.76 80.001 1067 80.001L1024 80.001L1024 128.001L1072 128.001Z" fill="#C2BFBF"/>
<path d="M1036 128.001L1036 119.001C1036 117.344 1034.66 116.001 1033 116.001L1024 116.001L1024 128.001L1036 128.001Z" fill="#4A4A4A"/>
<path d="M1072 0.000976562L1024 0.000980759L1024 48.001L1067 48.001C1069.76 48.001 1072 45.7624 1072 43.001L1072 0.000976562Z" fill="#918B82"/>
<path d="M1104 0.000976562L1104 43.001C1104 45.7624 1106.24 48.001 1109 48.001L1152 48.001L1152 0.000978661L1104 0.000976562Z" fill="#C2BFBF"/>
<path d="M1140 0.000976562L1140 9.00098C1140 10.6578 1141.34 12.001 1143 12.001L1152 12.001L1152 0.000977087L1140 0.000976562Z" fill="#4A4A4A"/>
<path d="M768 256.001H848V384.001H768V256.001Z" fill="#A29D96"/>
<path d="M816 256.001L816 299.001C816 301.762 813.761 304.001 811 304.001L768 304.001L768 256.001L816 256.001Z" fill="#C2BFBF"/>
<path d="M780 256.001L780 265.001C780 266.658 778.657 268.001 777 268.001L768 268.001L768 256.001L780 256.001Z" fill="#4A4A4A"/>
<path d="M768 336.001H811C813.761 336.001 816 338.24 816 341.001V384.001H768V336.001Z" fill="#C2BFBF"/>
<path d="M768 372.001H777C778.657 372.001 780 373.344 780 375.001V384.001H768V372.001Z" fill="#4A4A4A"/>
<path d="M896 384.001L816 384.001L816 256.001L896 256.001L896 384.001Z" fill="#A29D96"/>
<path d="M848 384.001L848 341.001C848 338.24 850.239 336.001 853 336.001L896 336.001L896 384.001L848 384.001Z" fill="#C2BFBF"/>
<path d="M884 384.001L884 375.001C884 373.344 885.343 372.001 887 372.001L896 372.001L896 384.001L884 384.001Z" fill="#4A4A4A"/>
<path d="M896 304.001L853 304.001C850.239 304.001 848 301.762 848 299.001L848 256.001L896 256.001L896 304.001Z" fill="#C2BFBF"/>
<path d="M896 268.001L887 268.001C885.343 268.001 884 266.658 884 265.001L884 256.001L896 256.001L896 268.001Z" fill="#4A4A4A"/>
<path d="M512 384.001H592V512.001H512V384.001Z" fill="#A29D96"/>
<path d="M560 384.001L560 427.001C560 429.762 557.761 432.001 555 432.001L512 432.001L512 384.001L560 384.001Z" fill="#918B82"/>
<path d="M512 464.001H555C557.761 464.001 560 466.24 560 469.001V512.001H512V464.001Z" fill="#C2BFBF"/>
<path d="M512 500.001H521C522.657 500.001 524 501.344 524 503.001V512.001H512V500.001Z" fill="#4A4A4A"/>
<path d="M640 512.001L560 512.001L560 384.001L640 384.001L640 512.001Z" fill="#A29D96"/>
<path d="M592 512.001L592 469.001C592 466.24 594.239 464.001 597 464.001L640 464.001L640 512.001L592 512.001Z" fill="#C2BFBF"/>
<path d="M628 512.001L628 503.001C628 501.344 629.343 500.001 631 500.001L640 500.001L640 512.001L628 512.001Z" fill="#4A4A4A"/>
<path d="M640 432.001L597 432.001C594.239 432.001 592 429.762 592 427.001L592 384.001L640 384.001L640 432.001Z" fill="#C2BFBF"/>
<path d="M640 396.001L631 396.001C629.343 396.001 628 394.658 628 393.001L628 384.001L640 384.001L640 396.001Z" fill="#4A4A4A"/>
<path d="M512 384.001L512 464.001L384 464.001L384 384.001L512 384.001Z" fill="#A29D96"/>
<path d="M512 432.001L469 432.001C466.239 432.001 464 429.762 464 427.001L464 384.001L512 384.001L512 432.001Z" fill="#918B82"/>
<path d="M432 384.001L432 427.001C432 429.762 429.761 432.001 427 432.001L384 432.001L384 384.001L432 384.001Z" fill="#C2BFBF"/>
<path d="M396 384.001L396 393.001C396 394.658 394.657 396.001 393 396.001L384 396.001L384 384.001L396 384.001Z" fill="#4A4A4A"/>
<path d="M384 512.001L384 432.001L512 432.001L512 512.001L384 512.001Z" fill="#A29D96"/>
<path d="M384 464.001H427C429.761 464.001 432 466.24 432 469.001V512.001H384V464.001Z" fill="#C2BFBF"/>
<path d="M384 500.001H393C394.657 500.001 396 501.344 396 503.001V512.001H384V500.001Z" fill="#4A4A4A"/>
<path d="M464 512.001L464 469.001C464 466.24 466.239 464.001 469 464.001L512 464.001L512 512.001L464 512.001Z" fill="#C2BFBF"/>
<path d="M500 512.001L500 503.001C500 501.344 501.343 500.001 503 500.001L512 500.001L512 512.001L500 512.001Z" fill="#4A4A4A"/>
<path d="M512 384.001L432 384.001L432 256.001L512 256.001L512 384.001Z" fill="#A29D96"/>
<path d="M464 384.001L464 341.001C464 338.24 466.239 336.001 469 336.001L512 336.001L512 384.001L464 384.001Z" fill="#918B82"/>
<path d="M512 304.001L469 304.001C466.239 304.001 464 301.762 464 299.001L464 256.001L512 256.001L512 304.001Z" fill="#C2BFBF"/>
<path d="M512 268.001L503 268.001C501.343 268.001 500 266.658 500 265.001L500 256.001L512 256.001L512 268.001Z" fill="#4A4A4A"/>
<path d="M384 256.001L464 256.001L464 384.001L384 384.001L384 256.001Z" fill="#A29D96"/>
<path d="M432 256.001L432 299.001C432 301.762 429.761 304.001 427 304.001L384 304.001L384 256.001L432 256.001Z" fill="#C2BFBF"/>
<path d="M396 256.001L396 265.001C396 266.658 394.657 268.001 393 268.001L384 268.001L384 256.001L396 256.001Z" fill="#4A4A4A"/>
<path d="M384 336.001L427 336.001C429.761 336.001 432 338.24 432 341.001L432 384.001L384 384.001L384 336.001Z" fill="#C2BFBF"/>
<path d="M384 372.001L393 372.001C394.657 372.001 396 373.344 396 375.001L396 384.001L384 384.001L384 372.001Z" fill="#4A4A4A"/>
<path d="M512 128L512 48.0005L640 48.0005L640 128L512 128Z" fill="#A29D96"/>
<path d="M512 80.0005L640 80.0005L640 128L512 128.001L512 80.0005Z" fill="#918B82"/>
<path d="M640 0.000488281L640 80.0005L512 80.0005L512 0.000482686L640 0.000488281Z" fill="#A29D96"/>
<path d="M640 48.0005L597 48.0005C594.239 48.0005 592 45.7619 592 43.0005L592 0.000500107L640 0.000495911L640 48.0005Z" fill="#C2BFBF"/>
<path d="M640 12.0005L631 12.0005C629.343 12.0005 628 10.6573 628 9.00049L628 0.000491238L640 0.000490189L640 12.0005Z" fill="#4A4A4A"/>
<path d="M560 0.000488281L560 43.0005C560 45.7619 557.761 48.0005 555 48.0005L512 48.0005L512 0.000486183L560 0.000488281Z" fill="#C2BFBF"/>
<path d="M524 0.000488281L524 9.00049C524 10.6573 522.657 12.0005 521 12.0005L512 12.0005L512 0.000487757L524 0.000488281Z" fill="#4A4A4A"/>
<path d="M512 128L512 208L640 208.001L640 128L512 128Z" fill="#A29D96"/>
<path d="M512 176L640 176.001L640 128L512 128L512 176Z" fill="#918B82"/>
<path d="M640 256L640 176L512 176L512 256L640 256Z" fill="#A29D96"/>
<path d="M640 208L597 208C594.239 208 592 210.239 592 213L592 256L640 256L640 208Z" fill="#C2BFBF"/>
<path d="M640 244L631 244C629.343 244 628 245.344 628 247L628 256L640 256L640 244Z" fill="#4A4A4A"/>
<path d="M560 256L560 213C560 210.239 557.761 208 555 208L512 208L512 256L560 256Z" fill="#C2BFBF"/>
<path d="M524 256L524 247C524 245.344 522.657 244 521 244L512 244L512 256L524 256Z" fill="#4A4A4A"/>
<path d="M512 128.001L432 128.001L432 0.000977198L512 0.000984192L512 128.001Z" fill="#A29D96"/>
<path d="M464 128.001L464 85.001C464 82.2395 466.239 80.001 469 80.001L512 80.001L512 128.001L464 128.001Z" fill="#918B82"/>
<path d="M512 48.001L469 48.001C466.239 48.001 464 45.7624 464 43.001L464 0.000979996L512 0.000984192L512 48.001Z" fill="#C2BFBF"/>
<path d="M512 12.001L503 12.001C501.343 12.001 500 10.6578 500 9.00098L500 0.000977421L512 0.00097847L512 12.001Z" fill="#4A4A4A"/>
<path d="M384 0.000976562L464 0.00099055L464 128.001L384 128.001L384 0.000976562Z" fill="#A29D96"/>
<path d="M432 0.000976562L432 43.001C432 45.7624 429.761 48.001 427 48.001L384 48.001L384 0.000974464L432 0.000976562Z" fill="#C2BFBF"/>
<path d="M396 0.000976562L396 9.00098C396 10.6578 394.657 12.001 393 12.001L384 12.001L384 0.000976038L396 0.000976562Z" fill="#4A4A4A"/>
<path d="M384 0.000976562L427 0.000984081C429.761 0.000984564 432 2.23956 432 5.00099L432 128.001L384 128.001L384 0.000976562Z" fill="#C2BFBF"/>
<path d="M384 0.000976562L396 0.000978661L396 128.001L384 128.001L384 0.000976562Z" fill="#4A4A4A"/>
<path d="M640 128.001L640 48.0007L768 48.0007L768 128.001L640 128.001Z" fill="#A29D96"/>
<path d="M640 80.0007L683 80.0007C685.761 80.0007 688 82.2393 688 85.0007L688 128.001L640 128.001L640 80.0007Z" fill="#918B82"/>
<path d="M720 128.001L720 85.0007C720 82.2393 722.239 80.0007 725 80.0007L768 80.0007L768 128.001L720 128.001Z" fill="#C2BFBF"/>
<path d="M756 128.001L756 119.001C756 117.344 757.343 116.001 759 116.001L768 116.001L768 128.001L756 128.001Z" fill="#4A4A4A"/>
<path d="M768 0.000732422L768 80.0007L640 80.0007L640 0.000726827L768 0.000732422Z" fill="#A29D96"/>
<path d="M768 48.0007L725 48.0007C722.239 48.0007 720 45.7622 720 43.0007L720 0.000744248L768 0.000740051L768 48.0007Z" fill="#C2BFBF"/>
<path d="M768 12.0007L759 12.0007C757.343 12.0007 756 10.6576 756 9.00073L756 0.000735378L768 0.000734329L768 12.0007Z" fill="#4A4A4A"/>
<path d="M768 0.000732422L768 43.0008C768 45.7622 765.761 48.0008 763 48.0008L640 48.0007L640 0.000726827L768 0.000732422Z" fill="#C2BFBF"/>
<path d="M768 0.000732422L768 12.0008L640 12.0007L640 0.000726827L768 0.000732422Z" fill="#4A4A4A"/>
<path d="M896 128H976V256H896V128Z" fill="#A29D96"/>
<path d="M944 128L944 171C944 173.762 941.761 176 939 176L896 176.001L896 128L944 128Z" fill="#918B82"/>
<path d="M896 208H939C941.761 208 944 210.239 944 213V256H896V208Z" fill="#C2BFBF"/>
<path d="M896 244H905C906.657 244 908 245.344 908 247V256H896V244Z" fill="#4A4A4A"/>
<path d="M1024 256L944 256L944 128L1024 128L1024 256Z" fill="#A29D96"/>
<path d="M976 256L976 213C976 210.239 978.239 208 981 208L1024 208L1024 256L976 256Z" fill="#C2BFBF"/>
<path d="M1012 256L1012 247C1012 245.344 1013.34 244 1015 244L1024 244L1024 256L1012 256Z" fill="#4A4A4A"/>
<path d="M1024 256L981 256C978.239 256 976 253.762 976 251L976 128L1024 128L1024 256Z" fill="#C2BFBF"/>
<path d="M1024 256L1012 256L1012 128L1024 128L1024 256Z" fill="#4A4A4A"/>
<path d="M896 128L896 208L768 208L768 128L896 128Z" fill="#A29D96"/>
<path d="M896 176L853 176C850.239 176 848 173.762 848 171L848 128.001L896 128L896 176Z" fill="#918B82"/>
<path d="M816 128L816 171C816 173.762 813.761 176 811 176L768 176L768 128L816 128Z" fill="#C2BFBF"/>
<path d="M780 128L780 137C780 138.657 778.657 140 777 140L768 140L768 128L780 128Z" fill="#4A4A4A"/>
<path d="M768 256L768 176L896 176L896 256.001L768 256Z" fill="#A29D96"/>
<path d="M768 208L811 208C813.761 208 816 210.239 816 213L816 256L768 256L768 208Z" fill="#C2BFBF"/>
<path d="M768 244L777 244C778.657 244 780 245.344 780 247V256L768 256V244Z" fill="#4A4A4A"/>
<path d="M768 256L768 213C768 210.239 770.239 208 773 208L896 208L896 256.001L768 256Z" fill="#C2BFBF"/>
<path d="M768 256L768 244L896 244L896 256.001L768 256Z" fill="#4A4A4A"/>
<path d="M640 128L640 208L768 208L768 128L640 128Z" fill="#A29D96"/>
<path d="M640 176L683 176C685.761 176 688 173.762 688 171L688 128.001L640 128L640 176Z" fill="#918B82"/>
<path d="M720 128L720 171C720 173.762 722.239 176 725 176L768 176L768 128L720 128Z" fill="#C2BFBF"/>
<path d="M756 128L756 137C756 138.657 757.343 140 759 140L768 140L768 128L756 128Z" fill="#4A4A4A"/>
<path d="M768 256L768 176L640 176L640 256.001L768 256Z" fill="#A29D96"/>
<path d="M768 208L725 208C722.239 208 720 210.239 720 213L720 256L768 256L768 208Z" fill="#C2BFBF"/>
<path d="M768 244L759 244C757.343 244 756 245.344 756 247V256L768 256V244Z" fill="#4A4A4A"/>
<path d="M768 256L768 213C768 210.239 765.761 208 763 208L640 208L640 256.001L768 256Z" fill="#C2BFBF"/>
<path d="M768 256L768 244L640 244L640 256.001L768 256Z" fill="#4A4A4A"/>
<path d="M896 128L896 48.0002L768 48.0002L768 128L896 128Z" fill="#A29D96"/>
<path d="M896 80.0002L853 80.0002C850.239 80.0002 848 82.2388 848 85.0002L848 128L896 128L896 80.0002Z" fill="#918B82"/>
<path d="M816 128L816 85.0002C816 82.2388 813.761 80.0002 811 80.0002L768 80.0002L768 128L816 128Z" fill="#C2BFBF"/>
<path d="M780 128L780 119C780 117.343 778.657 116 777 116L768 116L768 128L780 128Z" fill="#4A4A4A"/>
<path d="M768 0.000244141L768 80.0003L896 80.0002L896 0.000227355L768 0.000244141Z" fill="#A29D96"/>
<path d="M768 48.0002L811 48.0002C813.761 48.0002 816 45.7617 816 43.0002L816 0.00025177L768 0.00025177L768 48.0002Z" fill="#C2BFBF"/>
<path d="M768 12.0002L777 12.0002C778.657 12.0002 780 10.6571 780 9.00024V0.000246048L768 0.000246048V12.0002Z" fill="#4A4A4A"/>
<path d="M768 0.000244141L768 43.0003C768 45.7617 770.239 48.0003 773 48.0003L896 48.0003L896 0.000227355L768 0.000244141Z" fill="#C2BFBF"/>
<path d="M768 0.000244141L768 12.0003L896 12.0002L896 0.000227355L768 0.000244141Z" fill="#4A4A4A"/>
<path d="M896 128H976V0.000495911L896 0.000495911V128Z" fill="#A29D96"/>
<path d="M944 128L944 85.0005C944 82.2391 941.761 80.0005 939 80.0005L896 80.0005L896 128L944 128Z" fill="#918B82"/>
<path d="M896 48.0005L939 48.0005C941.761 48.0005 944 45.7619 944 43.0005V0.000495911L896 0.000495911V48.0005Z" fill="#C2BFBF"/>
<path d="M896 12.0005L905 12.0005C906.657 12.0005 908 10.6573 908 9.00049V0.000490189L896 0.000490189V12.0005Z" fill="#4A4A4A"/>
<path d="M1024 0.000488281L944 0.000495275L944 128L1024 128L1024 0.000488281Z" fill="#A29D96"/>
<path d="M976 0.000488281L976 43.0005C976 45.7619 978.239 48.0005 981 48.0005L1024 48.0005L1024 0.000490379L976 0.000488281Z" fill="#C2BFBF"/>
<path d="M1012 0.000488281L1012 9.00049C1012 10.6573 1013.34 12.0005 1015 12.0005L1024 12.0005L1024 0.000488806L1012 0.000488281Z" fill="#4A4A4A"/>
<path d="M1024 0.000488281L981 0.00049204C978.239 0.000492282 976 2.23907 976 5.00049L976 128L1024 128L1024 0.000488281Z" fill="#C2BFBF"/>
<path d="M1024 0.000488281L1012 0.00048933L1012 128L1024 128L1024 0.000488281Z" fill="#4A4A4A"/>
<path d="M512 128.001L432 128.001L432 256.001L512 256.001L512 128.001Z" fill="#A29D96"/>
<path d="M464 128.001L464 171.001C464 173.762 466.239 176.001 469 176.001L512 176.001L512 128.001L464 128.001Z" fill="#918B82"/>
<path d="M512 208.001L469 208.001C466.239 208.001 464 210.24 464 213.001L464 256.001L512 256.001L512 208.001Z" fill="#C2BFBF"/>
<path d="M512 244.001L503 244.001C501.343 244.001 500 245.344 500 247.001L500 256.001L512 256.001L512 244.001Z" fill="#4A4A4A"/>
<path d="M384 256.001L464 256.001L464 128.001L384 128.001L384 256.001Z" fill="#A29D96"/>
<path d="M432 256.001L432 213.001C432 210.24 429.761 208.001 427 208.001L384 208.001L384 256.001L432 256.001Z" fill="#C2BFBF"/>
<path d="M396 256.001L396 247.001C396 245.344 394.657 244.001 393 244.001L384 244.001L384 256.001L396 256.001Z" fill="#4A4A4A"/>
<path d="M384 256.001L427 256.001C429.761 256.001 432 253.762 432 251.001L432 128.001L384 128.001L384 256.001Z" fill="#C2BFBF"/>
<path d="M384 256.001L396 256.001L396 128.001L384 128.001L384 256.001Z" fill="#4A4A4A"/>
<path d="M512 384.001L512 304.001L640 304.001L640 384.001L512 384.001Z" fill="#A29D96"/>
<path d="M512 336.001L555 336.001C557.761 336.001 560 338.24 560 341.001L560 384.001L512 384.001L512 336.001Z" fill="#918B82"/>
<path d="M592 384.001L592 341.001C592 338.24 594.239 336.001 597 336.001L640 336.001L640 384.001L592 384.001Z" fill="#C2BFBF"/>
<path d="M628 384.001L628 375.001C628 373.344 629.343 372.001 631 372.001L640 372.001L640 384.001L628 384.001Z" fill="#4A4A4A"/>
<path d="M640 256.001L640 336.001L512 336.001L512 256.001L640 256.001Z" fill="#A29D96"/>
<path d="M640 304.001L597 304.001C594.239 304.001 592 301.762 592 299.001L592 256.001L640 256.001L640 304.001Z" fill="#C2BFBF"/>
<path d="M640 268.001L631 268.001C629.343 268.001 628 266.658 628 265.001L628 256.001L640 256.001L640 268.001Z" fill="#4A4A4A"/>
<path d="M560 256.001L560 299.001C560 301.762 557.761 304.001 555 304.001L512 304.001L512 256.001L560 256.001Z" fill="#C2BFBF"/>
<path d="M524 256.001L524 265.001C524 266.658 522.657 268.001 521 268.001L512 268.001L512 256.001L524 256.001Z" fill="#4A4A4A"/>
<path d="M688 384.001L688 427.001C688 429.762 685.761 432.001 683 432.001L640 432.001L640 384.001L688 384.001Z" fill="#C2BFBF"/>
<path d="M652 384.001L652 393.001C652 394.658 650.657 396.001 649 396.001L640 396.001L640 384.001L652 384.001Z" fill="#4A4A4A"/>
<path d="M640 464.001H768V500.001H640V464.001Z" fill="#C2BFBF"/>
<path d="M640 500.001H768V512.001H640V500.001Z" fill="#4A4A4A"/>
<path d="M768 464.001L640 464.001L640 384.001L768 384.001L768 464.001Z" fill="#A29D96"/>
<path d="M768 432.001L725 432.001C722.239 432.001 720 429.762 720 427.001L720 384.001L768 384.001L768 432.001Z" fill="#C2BFBF"/>
<path d="M768 396.001L759 396.001C757.343 396.001 756 394.658 756 393.001L756 384.001L768 384.001L768 396.001Z" fill="#4A4A4A"/>
<path d="M688 384.001L688 427.001C688 429.762 685.761 432.001 683 432.001L640 432.001L640 384.001L688 384.001Z" fill="#C2BFBF"/>
<path d="M652 384.001L652 393.001C652 394.658 650.657 396.001 649 396.001L640 396.001L640 384.001L652 384.001Z" fill="#4A4A4A"/>
<path d="M720 384.001L720 341.001C720 338.24 722.239 336.001 725 336.001L768 336.001L768 384.001L720 384.001Z" fill="#C2BFBF"/>
<path d="M756 384.001L756 375.001C756 373.344 757.343 372.001 759 372.001L768 372.001L768 384.001L756 384.001Z" fill="#4A4A4A"/>
<path d="M768 304.001L640 304.001L640 268.001L768 268.001L768 304.001Z" fill="#C2BFBF"/>
<path d="M768 268.001L640 268.001L640 256.001L768 256.001L768 268.001Z" fill="#4A4A4A"/>
<path d="M640 304.001L768 304.001L768 384.001L640 384.001L640 304.001Z" fill="#A29D96"/>
<path d="M640 336.001L683 336.001C685.761 336.001 688 338.24 688 341.001L688 384.001L640 384.001L640 336.001Z" fill="#C2BFBF"/>
<path d="M640 372.001L649 372.001C650.657 372.001 652 373.344 652 375.001L652 384.001L640 384.001L640 372.001Z" fill="#4A4A4A"/>
<path d="M720 384.001L720 341.001C720 338.24 722.239 336.001 725 336.001L768 336.001L768 384.001L720 384.001Z" fill="#C2BFBF"/>
<path d="M756 384.001L756 375.001C756 373.344 757.343 372.001 759 372.001L768 372.001L768 384.001L756 384.001Z" fill="#4A4A4A"/>
<path d="M256 384.001L140 384.001C133.373 384.001 128 378.628 128 372.001L128 256.001L256 256.001L256 384.001Z" fill="#4A4A4A"/>
<path d="M256 372.001L147 372.001C143.134 372.001 140 368.867 140 365.001L140 256.001L256 256.001L256 372.001Z" fill="#C2BFBF"/>
<path d="M256 336.001L181 336.001C178.239 336.001 176 333.762 176 331.001L176 256.001L256 256.001L256 336.001Z" fill="#A29D96"/>
<path d="M256 304.001L213 304.001C210.239 304.001 208 301.762 208 299.001L208 256.001L256 256.001L256 304.001Z" fill="#C2BFBF"/>
<path d="M256 268.001L247 268.001C245.343 268.001 244 266.658 244 265.001L244 256.001L256 256.001L256 268.001Z" fill="#4A4A4A"/>
<path d="M256 256.001L128 256.001L128 128.001L256 128.001L256 256.001Z" fill="#4A4A4A"/>
<path d="M256 256.001L140 256.001L140 128.001L256 128.001L256 256.001Z" fill="#C2BFBF"/>
<path d="M256 208.001L181 208.001C178.238 208.001 176 205.762 176 203.001L176 128.001L256 128.001L256 208.001Z" fill="#A29D96"/>
<path d="M176 256.001L176 181.001C176 178.24 178.239 176.001 181 176.001L256 176.001L256 256.001L176 256.001Z" fill="#A29D96"/>
<path d="M256 176.001L213 176.001C210.238 176.001 208 173.762 208 171.001L208 128.001L256 128.001L256 176.001Z" fill="#C2BFBF"/>
<path d="M256 140.001L247 140.001C245.343 140.001 244 138.658 244 137.001L244 128.001L256 128.001L256 140.001Z" fill="#4A4A4A"/>
<path d="M208 256.001L208 213.001C208 210.24 210.238 208.001 213 208.001L256 208.001L256 256.001L208 256.001Z" fill="#C2BFBF"/>
<path d="M244 256.001L244 247.001C244 245.344 245.343 244.001 247 244.001L256 244.001L256 256.001L244 256.001Z" fill="#4A4A4A"/>
<path d="M256 128.001L384 128.001V256.001H256V128.001Z" fill="#4A4A4A"/>
<path d="M256 128.001H372V256.001H256V128.001Z" fill="#C2BFBF"/>
<path d="M256 176.001H331C333.762 176.001 336 178.24 336 181.001V256.001H256V176.001Z" fill="#A29D96"/>
<path d="M336 128.001L336 203.001C336 205.762 333.761 208.001 331 208.001L256 208.001L256 128.001L336 128.001Z" fill="#A29D96"/>
<path d="M256 208.001H299C301.762 208.001 304 210.24 304 213.001V256.001H256V208.001Z" fill="#C2BFBF"/>
<path d="M256 244.001H265C266.657 244.001 268 245.344 268 247.001V256.001H256V244.001Z" fill="#4A4A4A"/>
<path d="M304 128.001L304 171.001C304 173.762 301.762 176.001 299 176.001L256 176.001L256 128.001L304 128.001Z" fill="#C2BFBF"/>
<path d="M268 128.001L268 137.001C268 138.658 266.657 140.001 265 140.001L256 140.001L256 128.001L268 128.001Z" fill="#4A4A4A"/>
<path d="M384 256.001L384 372.001C384 378.628 378.627 384.001 372 384.001L256 384.001L256 256.001L384 256.001Z" fill="#4A4A4A"/>
<path d="M372 256.001L372 365.001C372 368.867 368.866 372.001 365 372.001L256 372.001L256 256.001L372 256.001Z" fill="#C2BFBF"/>
<path d="M336 256.001L336 331.001C336 333.762 333.761 336.001 331 336.001L256 336.001L256 256.001L336 256.001Z" fill="#A29D96"/>
<path d="M304 256.001L304 299.001C304 301.762 301.761 304.001 299 304.001L256 304.001L256 256.001L304 256.001Z" fill="#C2BFBF"/>
<path d="M268 256.001L268 265.001C268 266.658 266.657 268.001 265 268.001L256 268.001L256 256.001L268 256.001Z" fill="#4A4A4A"/>
</svg>
